<?xml version="1.0" encoding="UTF-8"?>
<svg id="Layer_1" data-name="Layer 1" xmlns="http://www.w3.org/2000/svg" viewBox="0 0 526.98 523.91">
  <defs>
    <style>
      .cls-1 {
        letter-spacing: .38em;
      }

      .cls-1, .cls-2 {
        font-family: Eurostile-Med, Eurostile;
        font-size: 22.48px;
      }

      .cls-3 {
        letter-spacing: .74em;
      }

      .cls-4 {
        letter-spacing: .74em;
      }

      .cls-5 {
        letter-spacing: .74em;
      }

      .cls-6 {
        letter-spacing: .74em;
      }

      .cls-2 {
        letter-spacing: .38em;
      }

      .cls-7 {
        letter-spacing: .74em;
      }

      .cls-8 {
        font-family: Eurostile-Reg, Eurostile;
        font-size: 10px;
      }

      .cls-9 {
        letter-spacing: .75em;
      }
    </style>
  </defs>
  <g>
    <polygon points="60.79 273.49 87.85 232.52 114.66 273.78 109.06 271.04 87.73 248.01 66.17 270.94 60.79 273.49"/>
    <polygon points="48.17 291.39 54.32 281.67 79.5 269.84 74.28 278.14 48.17 291.39"/>
    <polygon points="95.65 269.95 101.21 278.35 127.15 291.38 120.84 281.6 95.65 269.95"/>
    <circle cx="87.49" cy="267" r="4"/>
  </g>
  <g>
    <text class="cls-8" transform="translate(199.53 288.31) scale(1.56 1)"><tspan class="cls-9" x="0" y="0">T</tspan><tspan class="cls-6" x="12.67" y="0">ECH</tspan><tspan class="cls-4" x="52.89" y="0">N</tspan><tspan class="cls-6" x="67.22" y="0">O</tspan><tspan class="cls-3" x="81.23" y="0">L</tspan><tspan class="cls-7" x="93.51" y="0">O</tspan><tspan class="cls-6" x="107.53" y="0">GI</tspan><tspan class="cls-5" x="130.68" y="0">E</tspan><tspan class="cls-6" x="143.34" y="0">S</tspan></text>
    <g>
      <polygon points="178.57 265.97 166.95 250.62 165.05 250.62 153.24 265.94 156.26 265.97 165.91 253.7 175.38 266.08 178.57 265.97"/>
      <polygon points="382.06 265.97 370.43 250.62 368.53 250.62 356.73 265.94 359.74 265.97 369.39 253.7 378.86 266.08 382.06 265.97"/>
      <rect x="190.87" y="250.86" width="18.94" height="2.15"/>
      <rect x="190.87" y="257.51" width="16.72" height="2.15"/>
      <rect x="190.87" y="263.85" width="18.94" height="2.15"/>
      <rect x="327.11" y="250.86" width="18.94" height="2.15"/>
      <rect x="327.11" y="257.51" width="16.72" height="2.15"/>
      <rect x="327.11" y="263.85" width="18.94" height="2.15"/>
      <text class="cls-1" transform="translate(225 265.83) scale(1.44 1)"><tspan x="0" y="0">R</tspan></text>
      <text class="cls-2" transform="translate(258.79 266.38) scale(1.44 1)"><tspan x="0" y="0">O</tspan></text>
      <text class="cls-1" transform="translate(294.72 266.38) scale(1.44 1)"><tspan x="0" y="0">S</tspan></text>
      <text class="cls-1" transform="translate(393.21 266.08) scale(1.44 1)"><tspan x="0" y="0">R</tspan></text>
      <text class="cls-2" transform="translate(425.4 265.83) scale(1.44 1)"><tspan x="0" y="0">C</tspan></text>
      <text class="cls-2" transform="translate(456.88 265.83) scale(1.44 1)"><tspan x="0" y="0">H</tspan></text>
    </g>
  </g>
</svg>